<?xml version="1.0" encoding="UTF-8" standalone="no"?>
<!DOCTYPE svg PUBLIC "-//W3C//DTD SVG 1.1//EN" "http://www.w3.org/Graphics/SVG/1.1/DTD/svg11.dtd">
<svg width="100%" height="100%" viewBox="0 0 200 200" version="1.1" xmlns="http://www.w3.org/2000/svg" xmlns:xlink="http://www.w3.org/1999/xlink" xml:space="preserve" xmlns:serif="http://www.serif.com/" style="fill-rule:evenodd;clip-rule:evenodd;stroke-linejoin:round;stroke-miterlimit:2;">
    <g id="Monoloom-Logo-v1.0.afdesign" serif:id="Monoloom Logo v1.0.afdesign" transform="matrix(1,0,0,1,100,100)">
        <g transform="matrix(1,0,0,1,-100,-100)">
            <g id="OO">
                <path id="O" d="M121.817,164.872C139.817,164.872 155.013,158.56 167.636,145.937C180.26,133.313 186.806,118.117 186.806,100.117C186.806,82.116 180.26,66.921 167.636,54.297C155.013,41.673 139.817,35.128 121.817,35.128C103.816,35.128 88.621,41.673 75.997,54.297C63.373,66.921 57.061,82.116 57.061,100.117C57.061,118.117 63.373,133.313 75.997,145.937C88.621,158.56 103.816,164.872 121.817,164.872ZM121.817,57.57C133.505,57.57 143.558,61.778 151.974,69.96C160.156,78.376 164.364,88.428 164.364,100.117C164.364,111.806 160.156,121.858 151.974,130.04C143.558,138.456 133.505,142.43 121.817,142.43C110.128,142.43 100.076,138.456 91.894,130.04C83.478,121.858 79.504,111.806 79.504,100.117C79.504,88.428 83.478,78.376 91.894,69.96C100.076,61.778 110.128,57.57 121.817,57.57Z" style="fill:rgb(36,104,255);fill-rule:nonzero;"/>
                <path id="O1" serif:id="O" d="M77.95,164.872C95.95,164.872 111.146,158.56 123.769,145.937C136.393,133.313 142.939,118.117 142.939,100.117C142.939,82.116 136.393,66.921 123.769,54.297C111.146,41.673 95.95,35.128 77.95,35.128C59.949,35.128 44.754,41.673 32.13,54.297C19.506,66.921 13.194,82.116 13.194,100.117C13.194,118.117 19.506,133.313 32.13,145.937C44.754,158.56 59.949,164.872 77.95,164.872ZM77.95,57.57C89.638,57.57 99.691,61.778 108.106,69.96C116.289,78.376 120.496,88.428 120.496,100.117C120.496,111.806 116.289,121.858 108.106,130.04C99.691,138.456 89.638,142.43 77.95,142.43C66.261,142.43 56.209,138.456 48.026,130.04C39.611,121.858 35.636,111.806 35.636,100.117C35.636,88.428 39.611,78.376 48.026,69.96C56.209,61.778 66.261,57.57 77.95,57.57Z" style="fill:rgb(34,34,34);fill-rule:nonzero;"/>
                <g id="Half-O" serif:id="Half O">
                    <clipPath id="_clip1">
                        <rect x="57.061" y="94.119" width="129.745" height="70.753"/>
                    </clipPath>
                    <g clip-path="url(#_clip1)">
                        <path id="O2" serif:id="O" d="M121.817,164.872C139.817,164.872 155.013,158.56 167.636,145.937C180.26,133.313 186.806,118.117 186.806,100.117C186.806,82.116 180.26,66.921 167.636,54.297C155.013,41.673 139.817,35.128 121.817,35.128C103.816,35.128 88.621,41.673 75.997,54.297C63.373,66.921 57.061,82.116 57.061,100.117C57.061,118.117 63.373,133.313 75.997,145.937C88.621,158.56 103.816,164.872 121.817,164.872ZM121.817,57.57C133.505,57.57 143.558,61.778 151.974,69.96C160.156,78.376 164.364,88.428 164.364,100.117C164.364,111.806 160.156,121.858 151.974,130.04C143.558,138.456 133.505,142.43 121.817,142.43C110.128,142.43 100.076,138.456 91.894,130.04C83.478,121.858 79.504,111.806 79.504,100.117C79.504,88.428 83.478,78.376 91.894,69.96C100.076,61.778 110.128,57.57 121.817,57.57Z" style="fill:rgb(36,104,255);fill-rule:nonzero;"/>
                    </g>
                </g>
            </g>
        </g>
    </g>
</svg>
