<?xml version="1.0" encoding="UTF-8" standalone="no"?>
<!DOCTYPE svg PUBLIC "-//W3C//DTD SVG 1.1//EN" "http://www.w3.org/Graphics/SVG/1.1/DTD/svg11.dtd">
<svg width="100%" height="100%" viewBox="0 0 4000 1000" version="1.1" xmlns="http://www.w3.org/2000/svg" xmlns:xlink="http://www.w3.org/1999/xlink" xml:space="preserve" xmlns:serif="http://www.serif.com/" style="fill-rule:evenodd;clip-rule:evenodd;stroke-linejoin:round;stroke-miterlimit:2;">
    <g id="monoloom">
        <path id="m" d="M743.089,425.624C715.567,398.102 682.147,384.341 642.83,384.341C603.512,384.341 570.092,398.102 542.57,425.624C539.293,428.901 536.672,432.177 533.395,435.454C530.774,432.177 527.498,428.901 524.877,425.624C496.699,398.102 463.279,384.341 423.961,384.341C384.644,384.341 351.224,398.102 323.701,425.624C296.179,453.802 282.418,487.222 282.418,526.539L282.418,723.128C282.418,732.302 285.039,739.51 291.592,746.063C298.145,752.616 306.008,755.892 315.183,755.892C323.701,755.892 331.565,752.616 338.118,746.063C344.671,739.51 347.947,732.302 347.947,723.128L347.947,526.539C347.947,505.57 355.155,487.222 370.227,472.15C385.299,457.078 402.992,449.87 423.961,449.87C445.586,449.87 463.279,457.078 478.351,472.15C493.422,487.222 500.631,505.57 500.631,526.539L500.631,723.128C500.631,732.302 503.907,739.51 510.46,746.063C517.013,752.616 524.221,755.892 533.395,755.892C542.57,755.892 550.433,752.616 556.331,746.063C562.884,739.51 566.16,732.302 566.16,723.128L566.16,526.539C566.16,512.778 569.437,499.672 576.645,487.877C583.198,476.082 592.372,466.908 604.167,460.355C615.962,453.146 629.068,449.87 642.83,449.87C663.799,449.87 682.147,457.078 696.564,472.15C711.635,487.222 719.499,505.57 719.499,526.539L719.499,723.128C719.499,732.302 722.12,739.51 728.673,746.063C735.226,752.616 743.089,755.892 752.264,755.892C760.782,755.892 768.646,752.616 775.199,746.063C781.752,739.51 785.028,732.302 785.028,723.128L785.028,526.539C785.028,487.222 770.612,453.802 743.089,425.624Z" style="fill:rgb(36,104,255);fill-rule:nonzero;"/>
        <path id="o" d="M1042.42,757.203C1092.88,757.203 1135.47,739.51 1170.86,704.124C1206.24,668.738 1224.59,626.144 1224.59,575.686C1224.59,525.229 1206.24,482.635 1170.86,447.249C1135.47,411.863 1092.88,393.515 1042.42,393.515C991.962,393.515 949.368,411.863 913.982,447.249C878.596,482.635 860.903,525.229 860.903,575.686C860.903,626.144 878.596,668.738 913.982,704.124C949.368,739.51 991.962,757.203 1042.42,757.203ZM1042.42,456.423C1075.18,456.423 1103.36,468.218 1126.95,491.154C1149.89,514.744 1161.68,542.922 1161.68,575.686C1161.68,608.451 1149.89,636.629 1126.95,659.564C1103.36,683.155 1075.18,694.295 1042.42,694.295C1009.65,694.295 981.477,683.155 958.542,659.564C934.951,636.629 923.811,608.451 923.811,575.686C923.811,542.922 934.951,514.744 958.542,491.154C981.477,468.218 1009.65,456.423 1042.42,456.423Z" style="fill:rgb(36,104,255);fill-rule:nonzero;"/>
        <path id="n" d="M1604.77,756.548C1613.94,756.548 1621.81,753.271 1628.36,746.718C1634.91,740.165 1637.54,732.302 1637.54,723.128L1637.54,554.717C1637.54,508.846 1621.15,469.529 1589.04,436.764C1556.28,403.999 1516.31,387.617 1470.43,387.617C1423.91,387.617 1384.59,403.999 1351.83,436.764C1319.06,469.529 1302.68,508.846 1302.68,554.717L1302.68,723.128C1302.68,732.302 1305.96,740.165 1312.51,746.718C1319.06,753.271 1326.93,755.892 1335.44,755.892C1344.62,755.892 1352.48,753.271 1359.04,746.718C1365.59,740.165 1368.21,732.302 1368.21,723.128L1368.21,554.717C1368.21,527.195 1378.69,502.949 1398.35,483.29C1418.01,462.976 1442.26,453.146 1470.43,453.146C1498.61,453.146 1522.2,462.976 1542.52,483.29C1562.18,502.949 1572.01,527.195 1572.01,554.717L1572.01,723.783C1572.01,732.302 1575.28,740.165 1581.84,746.718C1588.39,753.271 1596.25,756.548 1604.77,756.548Z" style="fill:rgb(36,104,255);fill-rule:nonzero;"/>
        <path id="o1" serif:id="o" d="M1895.67,757.203C1946.13,757.203 1988.72,739.51 2024.11,704.124C2059.49,668.738 2077.84,626.144 2077.84,575.686C2077.84,525.229 2059.49,482.635 2024.11,447.249C1988.72,411.863 1946.13,393.515 1895.67,393.515C1845.21,393.515 1802.62,411.863 1767.23,447.249C1731.85,482.635 1714.15,525.229 1714.15,575.686C1714.15,626.144 1731.85,668.738 1767.23,704.124C1802.62,739.51 1845.21,757.203 1895.67,757.203ZM1895.67,456.423C1928.43,456.423 1956.61,468.218 1980.2,491.154C2003.14,514.744 2014.93,542.922 2014.93,575.686C2014.93,608.451 2003.14,636.629 1980.2,659.564C1956.61,683.155 1928.43,694.295 1895.67,694.295C1862.9,694.295 1834.73,683.155 1811.79,659.564C1788.2,636.629 1777.06,608.451 1777.06,575.686C1777.06,542.922 1788.2,514.744 1811.79,491.154C1834.73,468.218 1862.9,456.423 1895.67,456.423Z" style="fill:rgb(36,104,255);fill-rule:nonzero;"/>
        <path id="l" d="M2162.35,251.971C2155.8,258.524 2153.18,266.388 2153.18,275.562L2153.18,633.352C2153.18,656.943 2157.11,677.912 2165.63,696.261C2173.49,714.609 2185.29,729.025 2200.36,739.51C2215.43,749.995 2232.47,754.582 2251.47,754.582L2252.78,754.582C2265.89,754.582 2276.37,751.961 2284.89,745.408C2292.75,739.51 2297.34,731.646 2297.34,721.817C2297.34,712.643 2294.06,704.779 2288.82,698.226C2283.58,692.329 2276.37,689.052 2267.85,689.052L2251.47,689.052C2241.64,689.052 2233.78,683.81 2227.88,673.325C2221.33,662.841 2218.71,649.735 2218.71,633.352L2218.71,275.562C2218.71,266.388 2215.43,258.524 2209.53,251.971C2202.98,246.074 2195.12,242.797 2185.94,242.797C2176.11,242.797 2168.25,246.074 2162.35,251.971Z" style="fill:rgb(36,104,255);fill-rule:nonzero;"/>
        <path id="o2" serif:id="o" d="M2516.4,757.203C2566.86,757.203 2609.45,739.51 2644.84,704.124C2680.22,668.738 2698.57,626.144 2698.57,575.686C2698.57,525.229 2680.22,482.635 2644.84,447.249C2609.45,411.863 2566.86,393.515 2516.4,393.515C2465.94,393.515 2423.35,411.863 2387.96,447.249C2352.58,482.635 2334.88,525.229 2334.88,575.686C2334.88,626.144 2352.58,668.738 2387.96,704.124C2423.35,739.51 2465.94,757.203 2516.4,757.203ZM2516.4,456.423C2549.16,456.423 2577.34,468.218 2600.93,491.154C2623.87,514.744 2635.66,542.922 2635.66,575.686C2635.66,608.451 2623.87,636.629 2600.93,659.564C2577.34,683.155 2549.16,694.295 2516.4,694.295C2483.64,694.295 2455.46,683.155 2432.52,659.564C2408.93,636.629 2397.79,608.451 2397.79,575.686C2397.79,542.922 2408.93,514.744 2432.52,491.154C2455.46,468.218 2483.64,456.423 2516.4,456.423Z" style="fill:rgb(36,104,255);fill-rule:nonzero;"/>
        <path id="o3" serif:id="o" d="M2954.06,757.203C3004.52,757.203 3047.11,739.51 3082.5,704.124C3117.88,668.738 3136.23,626.144 3136.23,575.686C3136.23,525.229 3117.88,482.635 3082.5,447.249C3047.11,411.863 3004.52,393.515 2954.06,393.515C2903.6,393.515 2861.01,411.863 2825.62,447.249C2790.24,482.635 2772.54,525.229 2772.54,575.686C2772.54,626.144 2790.24,668.738 2825.62,704.124C2861.01,739.51 2903.6,757.203 2954.06,757.203ZM2954.06,456.423C2986.83,456.423 3015,468.218 3038.59,491.154C3061.53,514.744 3073.32,542.922 3073.32,575.686C3073.32,608.451 3061.53,636.629 3038.59,659.564C3015,683.155 2986.83,694.295 2954.06,694.295C2921.3,694.295 2893.12,683.155 2870.18,659.564C2846.59,636.629 2835.45,608.451 2835.45,575.686C2835.45,542.922 2846.59,514.744 2870.18,491.154C2893.12,468.218 2921.3,456.423 2954.06,456.423Z" style="fill:rgb(36,104,255);fill-rule:nonzero;"/>
        <path id="m1" serif:id="m" d="M3675.64,425.624C3648.12,398.102 3614.7,384.341 3575.38,384.341C3536.06,384.341 3502.64,398.102 3475.12,425.624C3471.84,428.901 3469.22,432.177 3465.95,435.454C3463.33,432.177 3460.05,428.901 3457.43,425.624C3429.25,398.102 3395.83,384.341 3356.51,384.341C3317.2,384.341 3283.78,398.102 3256.25,425.624C3228.73,453.802 3214.97,487.222 3214.97,526.539L3214.97,723.128C3214.97,732.302 3217.59,739.51 3224.14,746.063C3230.7,752.616 3238.56,755.892 3247.73,755.892C3256.25,755.892 3264.12,752.616 3270.67,746.063C3277.22,739.51 3280.5,732.302 3280.5,723.128L3280.5,526.539C3280.5,505.57 3287.71,487.222 3302.78,472.15C3317.85,457.078 3335.54,449.87 3356.51,449.87C3378.14,449.87 3395.83,457.078 3410.9,472.15C3425.97,487.222 3433.18,505.57 3433.18,526.539L3433.18,723.128C3433.18,732.302 3436.46,739.51 3443.01,746.063C3449.56,752.616 3456.77,755.892 3465.95,755.892C3475.12,755.892 3482.98,752.616 3488.88,746.063C3495.43,739.51 3498.71,732.302 3498.71,723.128L3498.71,526.539C3498.71,512.778 3501.99,499.672 3509.2,487.877C3515.75,476.082 3524.92,466.908 3536.72,460.355C3548.51,453.146 3561.62,449.87 3575.38,449.87C3596.35,449.87 3614.7,457.078 3629.11,472.15C3644.19,487.222 3652.05,505.57 3652.05,526.539L3652.05,723.128C3652.05,732.302 3654.67,739.51 3661.22,746.063C3667.78,752.616 3675.64,755.892 3684.81,755.892C3693.33,755.892 3701.2,752.616 3707.75,746.063C3714.3,739.51 3717.58,732.302 3717.58,723.128L3717.58,526.539C3717.58,487.222 3703.16,453.802 3675.64,425.624Z" style="fill:rgb(36,104,255);fill-rule:nonzero;"/>
    </g>
</svg>
